<svg width="48" height="48" viewBox="0 0 48 48" fill="none" xmlns="http://www.w3.org/2000/svg">
<path d="M9.03687 14.7797L9.03689 14.7797L9.03196 14.7771C8.37003 14.4304 7.95996 13.7296 7.95996 12.9201C7.95996 12.1419 8.38118 11.43 9.04109 11.0581L20.3153 4.98124C20.3156 4.98107 20.3159 4.98091 20.3162 4.98075C21.3687 4.41979 22.6115 4.41983 23.664 4.98087C23.6642 4.98099 23.6644 4.98111 23.6647 4.98124L34.959 11.0582C35.6188 11.4301 36.04 12.1419 36.04 12.9201C36.04 13.7236 35.6145 14.4302 34.9636 14.7795L34.9631 14.7797L23.663 20.8597L23.663 20.8597L23.6584 20.8623C23.1577 21.1385 22.5617 21.2801 22 21.2801C21.4423 21.2801 20.8634 21.1404 20.336 20.8593C20.3358 20.8592 20.3355 20.859 20.3353 20.8589L9.03687 14.7797Z" fill="#2F7AEA" stroke="#2F7AEA"/>
<path d="M7.51206 18.6252L7.51205 18.6252L7.51673 18.6276L18.0142 23.8663C19.3676 24.5619 20.2211 25.9313 20.24 27.4631V37.3802C20.24 38.102 19.8742 38.7608 19.2623 39.1515C18.9105 39.3505 18.5191 39.4602 18.16 39.4602C17.8424 39.4602 17.5186 39.3805 17.2236 39.233L17.2233 39.2328L6.72592 33.9941C6.72548 33.9939 6.72504 33.9937 6.7246 33.9935C5.35065 33.297 4.5 31.9281 4.5 30.4002V20.4802C4.5 19.7572 4.86696 19.0975 5.48059 18.707C6.12259 18.331 6.85796 18.2902 7.51206 18.6252Z" fill="#2F7AEA" stroke="#2F7AEA"/>
<path d="M24.4998 37.0002C24.4998 37.6969 24.558 38.3959 24.6819 39.0836C24.1192 38.7078 23.7798 38.0763 23.7798 37.3802V27.4602C23.7798 25.9318 24.631 24.5625 25.9856 23.8663L36.483 18.6276L36.4831 18.6276L36.4877 18.6252C37.1418 18.2902 37.8772 18.331 38.5192 18.707C39.1328 19.0975 39.4998 19.7572 39.4998 20.4802V24.7573C38.6815 24.5781 37.8374 24.5002 36.9998 24.5002C34.1669 24.5002 31.3975 25.4784 29.2093 27.2283C26.2072 29.585 24.4998 33.1505 24.4998 37.0002Z" fill="#2F7AEA" stroke="#2F7AEA"/>
<path d="M43.3264 31.3536C43.387 31.4142 43.4477 31.4844 43.5 31.5549V31.5803L43.6151 31.7191C44.8014 33.1503 45.5 34.9977 45.5 37C45.5 37.6827 45.4242 38.3392 45.2566 38.9721L45.2566 38.972L45.2543 38.9813C45.0468 39.8303 44.7065 40.6444 44.2703 41.3843C42.7965 43.8395 40.0961 45.5 37 45.5C34.9777 45.5 33.1516 44.8015 31.7416 43.6171L31.6332 43.5261L31.5671 43.46H31.521C31.4654 43.4131 31.42 43.3728 31.3736 43.3264L31.3727 43.3256C31.349 43.3019 31.3045 43.2574 31.2337 43.2124C30.6497 42.6944 30.1357 42.0672 29.7298 41.3845L29.7298 41.3845L29.7282 41.3818C28.9528 40.0958 28.5 38.5845 28.5 37C28.5 34.6935 29.4069 32.598 30.8978 31.0693C32.4471 29.4821 34.6195 28.5 37 28.5C39.47 28.5 41.7106 29.553 43.237 31.2419C43.2421 31.2495 43.2509 31.2626 43.2606 31.276C43.2721 31.2918 43.2947 31.3218 43.3264 31.3536ZM39 40.4V38.96H40.36C41.4805 38.96 42.36 38.0518 42.36 36.96C42.36 35.8639 41.4561 34.96 40.36 34.96H39V33.68C39 32.5839 38.0961 31.68 37 31.68C35.9039 31.68 35 32.5839 35 33.68V34.96H33.64C32.5439 34.96 31.64 35.8639 31.64 36.96C31.64 38.0561 32.5439 38.96 33.64 38.96H35V40.4C35 41.4961 35.9039 42.4 37 42.4C38.0961 42.4 39 41.4961 39 40.4Z" fill="#2F7AEA" stroke="#2F7AEA"/>
</svg>
