<svg width="24" height="25" viewBox="0 0 24 25" fill="none" xmlns="http://www.w3.org/2000/svg">
<path d="M4.63738 7.66972L4.63739 7.66969L4.63247 7.66711C4.39054 7.54038 4.23047 7.27955 4.23047 6.96003C4.23047 6.66174 4.39179 6.38976 4.64187 6.24792L10.2758 3.21121C10.2761 3.21105 10.2764 3.21089 10.2767 3.21073C10.7292 2.96977 11.262 2.96979 11.7144 3.21082C11.7147 3.21095 11.7149 3.21108 11.7152 3.21121L17.3592 6.248C17.6092 6.38986 17.7705 6.6618 17.7705 6.96003C17.7705 7.27359 17.605 7.54015 17.3641 7.66945L17.3636 7.66972L11.7136 10.7097L11.7135 10.7097L11.7089 10.7122C11.4982 10.8285 11.2422 10.89 11.0005 10.89C10.7628 10.89 10.5139 10.8304 10.2865 10.7093C10.2863 10.7091 10.286 10.709 10.2858 10.7089L4.63738 7.66972Z" fill="#2F7AEA" stroke="#2F7AEA"/>
<path d="M3.64206 10.0351L3.64205 10.0351L3.64673 10.0375L8.89406 12.6561C9.48756 12.9618 9.86119 13.5613 9.87 14.2332V19.1901C9.87 19.462 9.73407 19.7108 9.50217 19.8615C9.36072 19.9402 9.2094 19.9801 9.08 19.9801C8.96242 19.9801 8.8386 19.9504 8.72361 19.8929L8.72327 19.8927L3.47592 17.274C3.47551 17.2738 3.4751 17.2736 3.4747 17.2734C2.87069 16.9669 2.5 16.368 2.5 15.7001V10.7401C2.5 10.4671 2.63703 10.2173 2.87066 10.0669C3.12242 9.92103 3.39787 9.91004 3.64206 10.0351Z" fill="#2F7AEA" stroke="#2F7AEA"/>
<path d="M12.1396 17.6407V14.2301C12.1396 13.5617 12.5109 12.9624 13.1056 12.6561L18.3529 10.0375L18.3529 10.0375L18.3576 10.0351C18.6018 9.91004 18.8772 9.92103 19.129 10.0669C19.3626 10.2173 19.4996 10.4671 19.4996 10.7401V12.577C19.1677 12.5237 18.8318 12.5001 18.4996 12.5001C17.0267 12.5001 15.5874 13.0083 14.4492 13.9182C13.2486 14.8609 12.4466 16.1751 12.1396 17.6407Z" fill="#2F7AEA" stroke="#2F7AEA"/>
<path d="M21.4864 16.3536C21.4709 16.338 21.4586 16.3238 21.4497 16.313C21.4407 16.302 21.4334 16.2923 21.4281 16.285C21.4259 16.2819 21.4238 16.279 21.4219 16.2764C20.7057 15.4907 19.6572 15 18.5 15C17.3796 15 16.3573 15.4621 15.6279 16.2091L21.4864 16.3536ZM21.4864 16.3536C21.4864 16.3536 21.4865 16.3536 21.4865 16.3536C21.4865 16.3536 21.4864 16.3536 21.4864 16.3536ZM21.5 16.3676V16.3803L21.6151 16.5191C22.1714 17.1903 22.5 18.0577 22.5 19C22.5 19.3227 22.4642 19.6292 22.3866 19.9221L22.3866 19.922L22.3843 19.9313C22.2868 20.3303 22.1265 20.7144 21.9203 21.0643C21.2265 22.2195 19.9561 23 18.5 23C17.5477 23 16.6916 22.6715 16.0316 22.1171L15.9857 22.0786L15.8871 21.98H15.8571C15.841 21.9641 15.8122 21.9368 15.7701 21.9079C15.5033 21.6688 15.2671 21.3796 15.0798 21.0645L15.0798 21.0645L15.0782 21.0618C14.7128 20.4558 14.5 19.7445 14.5 19C14.5 17.9135 14.9269 16.928 15.6278 16.2093L21.5 16.3676ZM16.0336 22.1265L16.0328 22.1257C16.0375 22.1302 16.0384 22.1312 16.0336 22.1265ZM15.5222 22.3278L15.67 22.18L15.5222 22.3278ZM21.6265 16.5236C21.6312 16.5284 21.6302 16.5275 21.6257 16.5228L21.6265 16.5236ZM19.75 20.7V20.23H20.18C20.8805 20.23 21.43 19.6618 21.43 18.98C21.43 18.2939 20.8661 17.73 20.18 17.73H19.75V17.34C19.75 16.6539 19.1861 16.09 18.5 16.09C17.8139 16.09 17.25 16.6539 17.25 17.34V17.73H16.82C16.1339 17.73 15.57 18.2939 15.57 18.98C15.57 19.6661 16.1339 20.23 16.82 20.23H17.25V20.7C17.25 21.3861 17.8139 21.95 18.5 21.95C19.1861 21.95 19.75 21.3861 19.75 20.7Z" fill="#2F7AEA" stroke="#2F7AEA"/>
</svg>
