<svg width="19" height="18" viewBox="0 0 19 18" fill="none" xmlns="http://www.w3.org/2000/svg">
<path d="M10.2501 8.8125C10.1076 8.8125 9.96508 8.76 9.85258 8.6475C9.63508 8.43 9.63508 8.07 9.85258 7.8525L16.0026 1.7025C16.2201 1.485 16.5801 1.485 16.7976 1.7025C17.0151 1.92 17.0151 2.28 16.7976 2.4975L10.6476 8.6475C10.5351 8.76 10.3926 8.8125 10.2501 8.8125Z" fill="#2F7AEA"/>
<path d="M16.9999 5.6625C16.6924 5.6625 16.4374 5.4075 16.4374 5.1V2.0625H13.3999C13.0924 2.0625 12.8374 1.8075 12.8374 1.5C12.8374 1.1925 13.0924 0.9375 13.3999 0.9375H16.9999C17.3074 0.9375 17.5624 1.1925 17.5624 1.5V5.1C17.5624 5.4075 17.3074 5.6625 16.9999 5.6625Z" fill="#2F7AEA"/>
<path d="M11.75 17.0625H7.25C3.1775 17.0625 1.4375 15.3225 1.4375 11.25V6.75C1.4375 2.6775 3.1775 0.9375 7.25 0.9375H8.75C9.0575 0.9375 9.3125 1.1925 9.3125 1.5C9.3125 1.8075 9.0575 2.0625 8.75 2.0625H7.25C3.7925 2.0625 2.5625 3.2925 2.5625 6.75V11.25C2.5625 14.7075 3.7925 15.9375 7.25 15.9375H11.75C15.2075 15.9375 16.4375 14.7075 16.4375 11.25V9.75C16.4375 9.4425 16.6925 9.1875 17 9.1875C17.3075 9.1875 17.5625 9.4425 17.5625 9.75V11.25C17.5625 15.3225 15.8225 17.0625 11.75 17.0625Z" fill="#2F7AEA"/>
</svg>
