<svg width="22" height="22" viewBox="0 0 22 22" fill="none" xmlns="http://www.w3.org/2000/svg">
<path d="M14.6663 11.8249V15.6749C14.6663 18.8833 13.383 20.1666 10.1747 20.1666H6.32467C3.11634 20.1666 1.83301 18.8833 1.83301 15.6749V11.8249C1.83301 8.61658 3.11634 7.33325 6.32467 7.33325H10.1747C13.383 7.33325 14.6663 8.61658 14.6663 11.8249Z" stroke="#2F7AEA" stroke-width="1.5" stroke-linecap="round" stroke-linejoin="round"/>
<path d="M20.1663 6.32492V10.1749C20.1663 13.3833 18.883 14.6666 15.6747 14.6666H14.6663V11.8249C14.6663 8.61659 13.383 7.33325 10.1747 7.33325H7.33301V6.32492C7.33301 3.11659 8.61634 1.83325 11.8247 1.83325H15.6747C18.883 1.83325 20.1663 3.11659 20.1663 6.32492Z" stroke="#2F7AEA" stroke-width="1.5" stroke-linecap="round" stroke-linejoin="round"/>
</svg>
