<svg width="31" height="31" viewBox="0 0 31 31" fill="none" xmlns="http://www.w3.org/2000/svg">
<g id="Frame 33">
<rect width="30.527" height="30.527" rx="3.66324" fill="white"/>
<g id="Vector">
<path d="M14.523 12.6394H22.9796C23.7832 12.6394 24.4345 13.2908 24.4345 14.0943V16.9132H26.2532V14.0943C26.2532 12.2864 24.7876 10.8207 22.9796 10.8207H14.523C12.7151 10.8207 11.2495 12.2864 11.2495 14.0943V22.5509C11.2495 24.3588 12.7151 25.8244 14.523 25.8244H17.7056V24.0058H14.523C13.7195 24.0058 13.0681 23.3544 13.0681 22.5509V14.0943C13.0681 13.2908 13.7195 12.6394 14.523 12.6394Z" fill="#2F7AEA"/>
<path d="M19.5242 24.0058V25.8244H22.9796C24.7876 25.8244 26.2532 24.3588 26.2532 22.5509V18.7318H24.4345V22.5509C24.4345 23.3544 23.7832 24.0058 22.9796 24.0058H19.5242Z" fill="#2F7AEA"/>
<path d="M16.6144 17.4587L8.15781 17.4587C7.35429 17.4587 6.70291 16.8074 6.70291 16.0038L6.70291 13.185H4.88428L4.88428 16.0038C4.88428 17.8118 6.34989 19.2774 8.15781 19.2774L16.6144 19.2774C18.4224 19.2774 19.888 17.8118 19.888 16.0038L19.888 7.54721C19.888 5.73929 18.4224 4.27368 16.6144 4.27368L13.4318 4.27368V6.09231L16.6144 6.09231C17.418 6.09231 18.0693 6.74369 18.0693 7.54721L18.0693 16.0038C18.0693 16.8074 17.418 17.4587 16.6144 17.4587Z" fill="#2F7AEA"/>
<path d="M11.6132 6.09231V4.27368L8.15781 4.27368C6.34989 4.27368 4.88428 5.73929 4.88428 7.54721L4.88428 11.3663H6.70291L6.70291 7.54721C6.70291 6.74369 7.35429 6.09231 8.15781 6.09231L11.6132 6.09231Z" fill="#2F7AEA"/>
</g>
</g>
</svg>
