<svg xmlns="http://www.w3.org/2000/svg" width="24" height="25" viewBox="0 0 24 25" fill="none">
  <path d="M20.2102 8.31994L12.5102 12.7799C12.2002 12.9599 11.8102 12.9599 11.4902 12.7799L3.79021 8.31994C3.24021 7.99994 3.10021 7.24994 3.52021 6.77994C3.81021 6.44994 4.14021 6.17994 4.49021 5.98994L9.91021 2.98994C11.0702 2.33994 12.9502 2.33994 14.1102 2.98994L19.5302 5.98994C19.8802 6.17994 20.2102 6.45994 20.5002 6.77994C20.9002 7.24994 20.7602 7.99994 20.2102 8.31994Z" fill="#2F7AEA"/>
  <path d="M11.4305 14.6399V21.4599C11.4305 22.2199 10.6605 22.7199 9.98047 22.3899C7.92047 21.3799 4.45047 19.4899 4.45047 19.4899C3.23047 18.7999 2.23047 17.0599 2.23047 15.6299V10.4699C2.23047 9.67988 3.06047 9.17988 3.74047 9.56988L10.9305 13.7399C11.2305 13.9299 11.4305 14.2699 11.4305 14.6399Z" fill="#2F7AEA"/>
  <path d="M12.5703 14.6399V21.4599C12.5703 22.2199 13.3403 22.7199 14.0203 22.3899C16.0803 21.3799 19.5503 19.4899 19.5503 19.4899C20.7703 18.7999 21.7703 17.0599 21.7703 15.6299V10.4699C21.7703 9.67988 20.9403 9.17988 20.2603 9.56988L13.0703 13.7399C12.7703 13.9299 12.5703 14.2699 12.5703 14.6399Z" fill="#2F7AEA"/>
</svg>