<svg xmlns="http://www.w3.org/2000/svg" width="24" height="25" viewBox="0 0 24 25" fill="none">
  <path d="M22 10.25C21.59 10.25 21.25 9.91 21.25 9.5V7.5C21.25 4.92 19.58 3.25 17 3.25H7C4.42 3.25 2.75 4.92 2.75 7.5V9.5C2.75 9.91 2.41 10.25 2 10.25C1.59 10.25 1.25 9.91 1.25 9.5V7.5C1.25 4.06 3.56 1.75 7 1.75H17C20.44 1.75 22.75 4.06 22.75 7.5V9.5C22.75 9.91 22.41 10.25 22 10.25Z" fill="#2F7AEA"/>
  <path d="M17 23.25H7C3.56 23.25 1.25 20.94 1.25 17.5V15.5C1.25 15.09 1.59 14.75 2 14.75C2.41 14.75 2.75 15.09 2.75 15.5V17.5C2.75 20.08 4.42 21.75 7 21.75H17C19.58 21.75 21.25 20.08 21.25 17.5V15.5C21.25 15.09 21.59 14.75 22 14.75C22.41 14.75 22.75 15.09 22.75 15.5V17.5C22.75 20.94 20.44 23.25 17 23.25Z" fill="#2F7AEA"/>
  <path d="M16.4002 8.70996L12.6402 6.67996C12.2402 6.46996 11.7702 6.46996 11.3702 6.67996L7.60016 8.70996C7.33016 8.85996 7.16016 9.14996 7.16016 9.46996C7.16016 9.79996 7.33016 10.09 7.60016 10.24L11.3602 12.27C11.5602 12.38 11.7802 12.43 12.0002 12.43C12.2202 12.43 12.4402 12.38 12.6402 12.27L16.4002 10.24C16.6702 10.09 16.8402 9.79996 16.8402 9.46996C16.8402 9.14996 16.6702 8.85996 16.4002 8.70996Z" fill="#2F7AEA"/>
  <path d="M10.74 12.9699L7.24 11.2199C6.97 11.0899 6.66 11.0999 6.4 11.2599C6.15 11.4199 6 11.6899 6 11.9899V15.2999C6 15.8699 6.32 16.3899 6.83 16.6399L10.33 18.3899C10.45 18.4499 10.58 18.4799 10.72 18.4799C10.88 18.4799 11.03 18.4399 11.17 18.3499C11.43 18.1899 11.58 17.9199 11.58 17.6199V14.3099C11.57 13.7399 11.26 13.2299 10.74 12.9699Z" fill="#2F7AEA"/>
  <path d="M17.5899 11.2599C17.3299 11.0999 17.0199 11.0899 16.7499 11.2199L13.2499 12.9699C12.7399 13.2299 12.4199 13.7399 12.4199 14.3099V17.6199C12.4199 17.9199 12.5699 18.1899 12.8299 18.3499C12.9699 18.4399 13.1199 18.4799 13.2799 18.4799C13.4099 18.4799 13.5399 18.4499 13.6699 18.3899L17.1699 16.6399C17.6799 16.3799 17.9999 15.8699 17.9999 15.2999V11.9899C17.9999 11.6899 17.8499 11.4199 17.5899 11.2599Z" fill="#2F7AEA"/>
</svg>