<svg width="48" height="48" viewBox="0 0 48 48" fill="none" xmlns="http://www.w3.org/2000/svg">
<path d="M35.2 10.6201L23.9 4.54006C22.7 3.90006 21.28 3.90006 20.08 4.54006L8.79996 10.6201C7.97996 11.0801 7.45996 11.9601 7.45996 12.9201C7.45996 13.9001 7.95996 14.7801 8.79996 15.2201L20.1 21.3001C20.7 21.6201 21.36 21.7801 22 21.7801C22.64 21.7801 23.32 21.6201 23.9 21.3001L35.2 15.2201C36.02 14.7801 36.54 13.9001 36.54 12.9201C36.54 11.9601 36.02 11.0801 35.2 10.6201Z" fill="#5ECC8B"/>
<path d="M18.24 23.4202L7.74 18.1802C6.92 17.7602 6 17.8202 5.22 18.2802C4.46 18.7602 4 19.5802 4 20.4802V30.4002C4 32.1202 4.96 33.6602 6.5 34.4402L17 39.6802C17.36 39.8602 17.76 39.9602 18.16 39.9602C18.62 39.9602 19.1 39.8202 19.52 39.5802C20.28 39.1002 20.74 38.2802 20.74 37.3802V27.4602C20.72 25.7402 19.76 24.2002 18.24 23.4202Z" fill="#5ECC8B"/>
<path d="M39.9998 20.4802V25.4002C39.0398 25.1202 38.0198 25.0002 36.9998 25.0002C34.2798 25.0002 31.6198 25.9402 29.5198 27.6202C26.6398 29.8802 24.9998 33.3002 24.9998 37.0002C24.9998 37.9802 25.1198 38.9602 25.3798 39.9002C25.0798 39.8602 24.7798 39.7402 24.4998 39.5602C23.7398 39.1002 23.2798 38.2802 23.2798 37.3802V27.4602C23.2798 25.7402 24.2398 24.2002 25.7598 23.4202L36.2598 18.1802C37.0798 17.7602 37.9998 17.8202 38.7798 18.2802C39.5398 18.7602 39.9998 19.5802 39.9998 20.4802Z" fill="#5ECC8B"/>
<path d="M45.16 43L43.48 41.32C44.36 40 44.88 38.4 44.88 36.7C44.88 32.04 41.1 28.26 36.44 28.26C31.78 28.26 28 32.04 28 36.7C28 41.36 31.78 45.14 36.44 45.14C38.14 45.14 39.74 44.62 41.06 43.74L42.74 45.42C43.08 45.76 43.5 45.92 43.94 45.92C44.38 45.92 44.82 45.76 45.14 45.42C45.82 44.74 45.82 43.66 45.16 43Z" fill="#5ECC8B"/>
</svg>
