<svg width="48" height="48" viewBox="0 0 48 48" fill="none" xmlns="http://www.w3.org/2000/svg">
<path d="M44 19.5C43.18 19.5 42.5 18.82 42.5 18V14C42.5 8.84 39.16 5.5 34 5.5H14C8.84 5.5 5.5 8.84 5.5 14V18C5.5 18.82 4.82 19.5 4 19.5C3.18 19.5 2.5 18.82 2.5 18V14C2.5 7.12 7.12 2.5 14 2.5H34C40.88 2.5 45.5 7.12 45.5 14V18C45.5 18.82 44.82 19.5 44 19.5Z" fill="#9676F5"/>
<path d="M34 45.5H14C7.12 45.5 2.5 40.88 2.5 34V30C2.5 29.18 3.18 28.5 4 28.5C4.82 28.5 5.5 29.18 5.5 30V34C5.5 39.16 8.84 42.5 14 42.5H34C39.16 42.5 42.5 39.16 42.5 34V30C42.5 29.18 43.18 28.5 44 28.5C44.82 28.5 45.5 29.18 45.5 30V34C45.5 40.88 40.88 45.5 34 45.5Z" fill="#9676F5"/>
<path d="M32.7998 16.4199L25.2798 12.3599C24.4798 11.9399 23.5398 11.9399 22.7398 12.3599L15.1998 16.4199C14.6598 16.7199 14.3198 17.2999 14.3198 17.9399C14.3198 18.5999 14.6598 19.1799 15.1998 19.4799L22.7198 23.5399C23.1198 23.7599 23.5598 23.8599 23.9998 23.8599C24.4398 23.8599 24.8798 23.7599 25.2798 23.5399L32.7998 19.4799C33.3398 19.1799 33.6798 18.5999 33.6798 17.9399C33.6798 17.2999 33.3398 16.7199 32.7998 16.4199Z" fill="#9676F5"/>
<path d="M21.48 24.9401L14.48 21.4401C13.94 21.1801 13.32 21.2001 12.8 21.5201C12.3 21.8401 12 22.3801 12 22.9801V29.6001C12 30.7401 12.64 31.7801 13.66 32.2801L20.66 35.7801C20.9 35.9001 21.16 35.9601 21.44 35.9601C21.76 35.9601 22.06 35.8801 22.34 35.7001C22.86 35.3801 23.16 34.8401 23.16 34.2401V27.6201C23.14 26.4801 22.52 25.4601 21.48 24.9401Z" fill="#9676F5"/>
<path d="M35.1798 21.5201C34.6598 21.2001 34.0398 21.1801 33.4998 21.4401L26.4998 24.9401C25.4798 25.4601 24.8398 26.4801 24.8398 27.6201V34.2401C24.8398 34.8401 25.1398 35.3801 25.6598 35.7001C25.9398 35.8801 26.2398 35.9601 26.5598 35.9601C26.8198 35.9601 27.0798 35.9001 27.3398 35.7801L34.3398 32.2801C35.3598 31.7601 35.9998 30.7401 35.9998 29.6001V22.9801C35.9998 22.3801 35.6998 21.8401 35.1798 21.5201Z" fill="#9676F5"/>
</svg>
